#!OML:ASF H:\Punching\Project 1\Capture day 1\Session 1\female.ASF
:FULLY-SPECIFIED
:DEGREES
1817
root 0.109965 14.7828 -2.03642 21.3043 -33.6055 -5.80067
lowerback -2.69218 0.654293 2.84863
upperback -6.8265 0.778775 -1.21904
thorax -5.51421 0.173849 -2.87574
lowerneck -9.15332 10.0592 15.1328
upperneck 28.0625 14.7391 -12.2069
head 12.9916 6.78618 -5.05958
rclavicle -3.40419e-014 -3.10104e-014
rhumerus 11.5681 28.2103 -70.8214
rradius 128.499
rwrist -5.40631
rhand -39.6307 12.1628
rfingers 7.12502
rthumb -12.6117 -17.4365
lclavicle -3.40419e-014 -3.10104e-014
lhumerus 5.92455 -12.6088 58.7527
lradius 140.322
lwrist -2.21806
lhand -32.6857 5.84158
lfingers 7.12502
lthumb -5.91082 35.7391
rfemur -7.92307 10.5143 20.1803
rtibia 27.2316
rfoot -32.8034 -33.0676
rtoes -3.04566
lfemur -56.211 14.1671 -9.32765
ltibia 52.4842
lfoot -6.38598 12.3261
ltoes 9.03074
1818
root 0.0965669 14.775 -2.0819 21.1544 -33.4754 -5.77043
lowerback -2.79205 0.605669 3.09255
upperback -6.83886 0.715742 -1.13151
thorax -5.47487 0.132491 -2.91913
lowerneck -8.9181 10.0975 15.2079
upperneck 28.2376 14.8495 -12.2708
head 13.0487 6.84352 -5.09362
rclavicle -5.6753e-014 1.66979e-014
rhumerus 11.4769 28.4131 -70.8549
rradius 128.386
rwrist -5.46938
rhand -39.4355 12.1202
rfingers 7.12502
rthumb -12.4236 -17.4906
lclavicle -5.6753e-014 1.66979e-014
lhumerus 5.7598 -12.686 58.8102
lradius 140.385
lwrist -2.26435
lhand -32.7111 5.76706
lfingers 7.12502
lthumb -5.93528 35.6639
rfemur -7.88268 10.5756 20.3983
rtibia 27.3045
rfoot -33.1292 -33.2675
rtoes -2.52003
lfemur -55.8203 14.1273 -9.19908
ltibia 52.6558
lfoot -6.80273 12.4146
ltoes 7.45265
1819
root 0.0849366 14.7683 -2.12233 20.9997 -33.3909 -5.75257
lowerback -2.89792 0.571065 3.33861
upperback -6.84543 0.670779 -1.04145
thorax -5.4251 0.100488 -2.96144
lowerneck -8.6779 10.1411 15.2939
upperneck 28.4056 14.9704 -12.3486
head 13.1067 6.90556 -5.13331
rclavicle -5.27276e-014 -5.56597e-015
rhumerus 11.4005 28.6264 -70.881
rradius 128.249
rwrist -5.50599
rhand -39.2766 12.2462
rfingers 7.12502
rthumb -12.2704 -17.3738
lclavicle -5.27276e-014 -5.56597e-015
lhumerus 5.57834 -12.7587 58.8768
lradius 140.454
lwrist -2.31059
lhand -32.746 5.69399
lfingers 7.12502
lthumb -5.96896 35.5899
rfemur -7.81454 10.5946 20.5874
rtibia 27.338
rfoot -33.3466 -33.4192
rtoes -2.09951
lfemur -55.3358 14.0153 -9.03448
ltibia 52.7116
lfoot -7.27 12.5903
ltoes 5.89097
1820
root 0.0747027 14.7636 -2.15744 20.8299 -33.3554 -5.72745
lowerback -3.00636 0.550515 3.56973
upperback -6.84646 0.6436 -0.955495
thorax -5.36693 0.0783836 -2.99998
lowerneck -8.43613 10.1889 15.3882
upperneck 28.5664 15.0997 -12.438
head 13.1655 6.9713 -5.17759
rclavicle -2.89729e-014 1.82882e-014
rhumerus 11.331 28.8559 -70.904
rradius 128.1
rwrist -5.4891
rhand -39.1792 12.3741
rfingers 7.12502
rthumb -12.1764 -17.2515
lclavicle -2.89729e-014 1.82882e-014
lhumerus 5.38067 -12.8194 58.9602
lradius 140.517
lwrist -2.35408
lhand -32.7846 5.5659
lfingers 7.12502
lthumb -6.0063 35.4608
rfemur -7.72001 10.5531 20.7273
rtibia 27.3385
rfoot -33.458 -33.499
rtoes -1.79249
lfemur -54.7508 13.7849 -8.81609
ltibia 52.549
lfoot -7.73497 12.8112
ltoes 4.63921
1821
root 0.0657246 14.7613 -2.18767 20.6438 -33.3667 -5.68867
lowerback -3.11093 0.545002 3.77628
upperback -6.84104 0.63579 -0.873863
thorax -5.3028 0.0674765 -3.02957
lowerneck -8.2065 10.2394 15.4798
upperneck 28.7225 15.2332 -12.5298
head 13.2263 7.03808 -5.22117
rclavicle -3.41413e-014 7.95139e-015
rhumerus 11.2656 29.0959 -70.921
rradius 127.942
rwrist -5.40939
rhand -39.1694 12.5422
rfingers 7.12502
rthumb -12.167 -17.084
lclavicle -3.41413e-014 7.95139e-015
lhumerus 5.15682 -12.8776 59.0724
lradius 140.579
lwrist -2.41377
lhand -32.8378 5.43358
lfingers 7.12502
lthumb -6.05758 35.327
rfemur -7.61019 10.448 20.8132
rtibia 27.323
rfoot -33.4787 -33.4966
rtoes -1.5917
lfemur -54.0799 13.4197 -8.53961
ltibia 52.113
lfoot -8.16718 13.0749
ltoes 4.04257
1822
root 0.057895 14.7608 -2.21363 20.4428 -33.4176 -5.63388
lowerback -3.21133 0.552498 3.95893
upperback -6.82882 0.644688 -0.798012
thorax -5.23253 0.0663811 -3.05201
lowerneck -7.99528 10.2927 15.5673
upperneck 28.8803 15.3712 -12.6238
head 13.2932 7.10557 -5.26361
rclavicle -4.30866e-014 3.97569e-015
rhumerus 11.1935 29.3454 -70.9348
rradius 127.785
rwrist -5.26682
rhand -39.2471 12.7105
rfingers 7.12502
rthumb -12.242 -16.9112
lclavicle -4.30866e-014 3.97569e-015
lhumerus 4.91111 -12.9397 59.207
lradius 140.644
lwrist -2.49397
lhand -32.9071 5.28447
lfingers 7.12502
lthumb -6.12452 35.1759
rfemur -7.49694 10.279 20.8465
rtibia 27.3139
rfoot -33.4362 -33.4036
rtoes -1.48619
lfemur -53.3522 12.9341 -8.21962
ltibia 51.4189
lfoot -8.53386 13.4277
ltoes 4.29167
1823
root 0.0512173 14.7609 -2.23615 20.2298 -33.4996 -5.56388
lowerback -3.30088 0.573602 4.11622
upperback -6.81567 0.671565 -0.727153
thorax -5.16593 0.075484 -3.0657
lowerneck -7.80389 10.3446 15.6465
upperneck 29.0481 15.5061 -12.7112
head 13.3671 7.17073 -5.30227
rclavicle 9.58142e-014 2.70347e-014
rhumerus 11.0949 29.5959 -70.9474
rradius 127.641
rwrist -5.07459
rhand -39.3945 12.8462
rfingers 7.12502
rthumb -12.3841 -16.767
lclavicle 9.58142e-014 2.70347e-014
lhumerus 4.6398 -13.018 59.3731
lradius 140.709
lwrist -2.59259
lhand -32.9873 5.11094
lfingers 7.12502
lthumb -6.20196 35.0002
rfemur -7.39138 10.0469 20.8318
rtibia 27.3285
rfoot -33.3534 -33.2184
rtoes -1.46362
lfemur -52.6057 12.3773 -7.89021
ltibia 50.5515
lfoot -8.82077 13.9029
ltoes 5.28337
1824
root 0.0456505 14.7609 -2.25606 20.0142 -33.5979 -5.49238
lowerback -3.38406 0.604049 4.26294
upperback -6.80094 0.710767 -0.657627
thorax -5.10023 0.0913612 -3.07494
lowerneck -7.62965 10.3962 15.719
upperneck 29.2267 15.6397 -12.7926
head 13.4487 7.23455 -5.33743
rclavicle 9.55782e-014 1.66979e-014
rhumerus 10.9709 29.8429 -70.9621
rradius 127.524
rwrist -4.87398
rhand -39.5694 12.9574
rfingers 7.12502
rthumb -12.5527 -16.6455
lclavicle 9.55782e-014 1.66979e-014
lhumerus 4.35307 -13.106 59.5558
lradius 140.779
lwrist -2.68978
lhand -33.0739 5.00231
lfingers 7.12502
lthumb -6.2856 34.889
rfemur -7.29637 9.76506 20.7897
rtibia 27.3701
rfoot -33.2514 -32.957
rtoes -1.50149
lfemur -51.8822 11.8208 -7.58381
ltibia 49.6379
lfoot -9.04989 14.4872
ltoes 6.65992
1825
root 0.0409442 14.7612 -2.27418 19.8071 -33.6998 -5.42855
lowerback -3.46762 0.639602 4.40588
upperback -6.78545 0.756426 -0.586465
thorax -5.03294 0.110839 -3.0803
lowerneck -7.46999 10.4475 15.789
upperneck 29.4133 15.7721 -12.8704
head 13.5367 7.29729 -5.37082
rclavicle -8.09302e-014 1.19271e-015
rhumerus 10.8231 30.0845 -70.9801
rradius 127.436
rwrist -4.68974
rhand -39.756 13.0833
rfingers 7.12502
rthumb -12.7325 -16.5085
lclavicle -8.09302e-014 1.19271e-015
lhumerus 4.06187 -13.1975 59.7467
lradius 140.847
lwrist -2.77049
lhand -33.1632 4.94158
lfingers 7.12502
lthumb -6.37175 34.8257
rfemur -7.21311 9.45 20.7368
rtibia 27.4257
rfoot -33.1316 -32.6443
rtoes -1.58162
lfemur -51.2224 11.3283 -7.32927
ltibia 48.8007
lfoot -9.24644 15.1067
ltoes 7.98103
1826
root 0.0366487 14.7625 -2.291 19.6134 -33.7942 -5.37913
lowerback -3.55223 0.678284 4.54604
upperback -6.77117 0.805968 -0.510888
thorax -4.96602 0.132562 -3.0794
lowerneck -7.32254 10.4957 15.8592
upperneck 29.6067 15.8986 -12.9444
head 13.6297 7.35743 -5.40367
rclavicle 6.60214e-014 2.62396e-014
rhumerus 10.6516 30.3153 -70.9995
rradius 127.388
rwrist -4.55834
rhand -39.9001 13.1246
rfingers 7.12502
rthumb -12.8715 -16.4585
lclavicle 6.60214e-014 2.62396e-014
lhumerus 3.77713 -13.2946 59.9393
lradius 140.911
lwrist -2.80903
lhand -33.2407 4.88966
lfingers 7.12502
lthumb -6.44661 34.7716
rfemur -7.13353 9.11784 20.689
rtibia 27.4758
rfoot -32.9826 -32.3175
rtoes -1.71143
lfemur -50.6476 10.9375 -7.13768
ltibia 48.118
lfoot -9.4141 15.6781
ltoes 8.89933
1827
root 0.0323994 14.7658 -2.30725 19.4354 -33.8697 -5.34397
lowerback -3.64361 0.716474 4.67789
upperback -6.7544 0.854345 -0.427598
thorax -4.8928 0.154618 -3.06555
lowerneck -7.18736 10.5387 15.9232
upperneck 29.7961 16.0155 -13.013
head 13.7213 7.41289 -5.43461
rclavicle 4.2366e-014 -2.42517e-014
rhumerus 10.4716 30.5232 -71.012
rradius 127.367
rwrist -4.50213
rhand -39.9887 13.2449
rfingers 7.12502
rthumb -12.9569 -16.3328
lclavicle 4.2366e-014 -2.42517e-014
lhumerus 3.5119 -13.3919 60.1336
lradius 140.967
lwrist -2.8027
lhand -33.3064 4.8616
lfingers 7.12502
lthumb -6.51001 34.7415
rfemur -7.05339 8.79682 20.6578
rtibia 27.5074
rfoot -32.8169 -32.0129
rtoes -1.85615
lfemur -50.1703 10.6305 -6.98756
ltibia 47.6051
lfoot -9.53834 16.1392
ltoes 9.38799
